<?xml version="1.0" encoding="UTF-8"?>
<svg xmlns="http://www.w3.org/2000/svg"
     viewBox="0 0 600 600" width="300" height="300"
     preserveAspectRatio="xMidYMid meet">
  <g transform="scale(2, 2) translate(0, -225)">
    <path d="M249.34 377.35L206.93 377.35L206.93 505.83L188.02 505.83L188.02 260.94L206.93 260.94L206.93 360.47L249.34 360.47L249.34 377.35ZM165.42 428.90L152.09 443.75Q131.40 427.88 113.75 404.33Q96.10 380.78 90.77 363.13L90.77 363.13Q85.06 382.56 67.92 406.49Q50.78 430.42 29.96 446.80L29.96 446.80L15.36 434.10Q45.32 413.79 63.22 382.24Q81.12 350.69 81.12 317.94L81.12 317.94L81.12 277.82L100.04 277.82L100.04 317.05Q100.04 349.04 117.75 379.26Q135.46 409.47 165.42 428.90L165.42 428.90Z"/>
  </g>
</svg>