<?xml version="1.0" encoding="UTF-8"?>
<svg xmlns="http://www.w3.org/2000/svg"
     viewBox="0 0 600 600" width="300" height="300"
     preserveAspectRatio="xMidYMid meet">
  <g transform="scale(2, 2) translate(0, -225)">
    <path d="M248.32 377.35L206.93 377.35L206.93 505.83L188.02 505.83L188.02 260.94L206.93 260.94L206.93 360.21L248.32 360.21L248.32 377.35ZM89.12 443.75L89.12 443.75Q61.32 443.75 44.18 421.53Q27.04 399.32 27.04 360.47L27.04 360.47Q27.04 321.24 43.99 299.28Q60.94 277.31 89.12 277.31L89.12 277.31Q117.43 277.31 134.38 299.59Q151.33 321.88 151.33 360.47L151.33 360.47Q151.33 399.19 134.32 421.47Q117.30 443.75 89.12 443.75ZM89.12 294.20L89.12 294.20Q69.70 294.20 57.70 312.04Q45.70 329.87 45.70 360.47L45.70 360.47Q45.70 390.56 57.83 408.71Q69.95 426.87 89.12 426.87L89.12 426.87Q108.16 426.87 120.35 408.58Q132.54 390.30 132.54 360.47L132.54 360.47Q132.54 330 120.61 312.10Q108.67 294.20 89.12 294.20Z" stroke="black" fill="none" stroke-dasharray="2000" stroke-dashoffset="2000">
        <animate attributeName="stroke-dashoffset" from="2000" to="0" dur="5s" fill="freeze" />
      </path>
  </g>
</svg>