<?xml version="1.0" encoding="UTF-8"?>
<svg xmlns="http://www.w3.org/2000/svg"
     viewBox="0 0 600 600" width="300" height="300"
     preserveAspectRatio="xMidYMid meet">
  <g transform="scale(2, 2) translate(0, -225)">
    <path d="M167.45 428.64L154.50 443.50Q133.55 431.31 115.72 411.00Q97.88 390.68 92.04 374.81L92.04 374.81Q87.09 390.43 68.75 413.28Q50.40 436.13 31.48 448.45L31.48 448.45L17.39 434.36Q44.05 421.53 63.35 392.65Q82.65 363.77 82.65 336.86L82.65 336.86L82.65 312.10L22.85 312.10L22.85 295.21L82.39 295.21L82.39 260.94L101.18 260.94L101.18 295.21L160.72 295.21L160.72 312.10L101.18 312.10L101.18 337.62Q101.18 363.64 120.48 390.30Q139.78 416.96 167.45 428.64L167.45 428.64ZM247.05 381.54L206.93 381.54L206.93 505.83L188.02 505.83L188.02 260.94L206.93 260.94L206.93 364.40L247.05 364.40L247.05 381.54Z" stroke="black" fill="none" stroke-dasharray="2000" stroke-dashoffset="2000">
        <animate attributeName="stroke-dashoffset" from="2000" to="0" dur="5s" fill="freeze" />
      </path>
  </g>
</svg>