<?xml version="1.0" encoding="UTF-8"?>
<svg xmlns="http://www.w3.org/2000/svg"
     viewBox="0 0 600 600" width="300" height="300"
     preserveAspectRatio="xMidYMid meet">
  <g transform="scale(2, 2) translate(0, -225)">
    <path d="M250.73 378.75L206.81 378.75L206.81 505.83L187.89 505.83L187.89 260.94L206.81 260.94L206.81 361.87L250.73 361.87L250.73 378.75ZM32.12 282.77L146.50 282.77Q144.35 386.49 36.31 448.19L36.31 448.19L21.46 432.83Q47.48 422.17 71.41 401.03Q95.34 379.89 108.80 354.76L108.80 354.76L27.93 362.88L21.20 344.85L116.42 338.89Q123.91 319.72 126.19 299.66L126.19 299.66L32.12 299.66L32.12 282.77Z"/>
  </g>
</svg>