<?xml version="1.0" encoding="UTF-8"?>
<svg xmlns="http://www.w3.org/2000/svg"
     viewBox="0 0 600 600" width="300" height="300"
     preserveAspectRatio="xMidYMid meet">
  <g transform="scale(2, 2) translate(0, -225)">
    <path d="M248.32 373.80L206.93 373.80L206.93 505.83L188.02 505.83L188.02 260.94L206.93 260.94L206.93 356.66L248.32 356.66L248.32 373.80ZM141.93 368.09L53.07 368.09L53.07 423.44L64.62 423.44Q140.28 423.44 163.01 420.01L163.01 420.01L164.53 436.39Q143.96 438.80 119.97 439.43Q95.98 440.07 34.02 440.07L34.02 440.07L34.02 282.52L148.41 282.52L148.41 299.40L53.07 299.40L53.07 351.46L141.93 351.46L141.93 368.09Z" stroke="black" fill="none" stroke-dasharray="2000" stroke-dashoffset="2000">
        <animate attributeName="stroke-dashoffset" from="2000" to="0" dur="5s" fill="freeze" />
      </path>
  </g>
</svg>