<?xml version="1.0" encoding="UTF-8"?>
<svg xmlns="http://www.w3.org/2000/svg"
     viewBox="0 0 600 600" width="300" height="300"
     preserveAspectRatio="xMidYMid meet">
  <g transform="scale(2, 2) translate(0, -225)">
    <path d="M249.84 374.81L208.84 374.81L208.46 505.83L189.54 505.83L189.54 260.94L208.84 260.94L208.84 357.93L249.84 357.93L249.84 374.81ZM162.50 298.90L21.84 298.90L21.84 282.27L162.50 282.27L162.50 298.90ZM173.93 420.52L175.70 436.64Q157.55 440.32 136.22 440.32L136.22 440.32L12.95 440.32L12.95 423.44L50.91 423.44L48.62 316.80L67.29 316.80L69.95 423.44L114.89 423.44L117.30 316.80L135.97 316.80L133.43 423.44Q162.50 423.44 173.93 420.52L173.93 420.52Z"/>
  </g>
</svg>