<?xml version="1.0" encoding="UTF-8"?>
<svg xmlns="http://www.w3.org/2000/svg"
     viewBox="0 0 600 600" width="300" height="300"
     preserveAspectRatio="xMidYMid meet">
  <g transform="scale(2, 2) translate(0, -225)">
    <path d="M248.32 390.43L206.93 390.43L206.93 505.83L188.02 505.83L188.02 260.94L206.93 260.94L206.93 373.54L248.32 373.54L248.32 390.43ZM164.53 317.05L19.04 317.05L19.04 299.91L82.14 299.91L82.14 260.94L101.18 260.94L101.18 299.91L164.53 299.91L164.53 317.05ZM91.53 445.02L91.53 445.02Q64.49 445.02 47.35 429.40Q30.21 413.79 30.21 390.68L30.21 390.68Q30.21 367.20 47.35 351.65Q64.49 336.09 91.79 336.09L91.79 336.09Q118.96 336.09 136.16 351.71Q153.36 367.32 153.36 390.94L153.36 390.94Q153.36 414.17 136.16 429.59Q118.96 445.02 91.53 445.02ZM91.79 352.22L91.79 352.22Q73.00 352.22 60.94 363.52Q48.88 374.81 48.88 390.68L48.88 390.68Q48.88 406.43 61.00 417.66Q73.13 428.90 91.79 428.90L91.79 428.90Q110.45 428.90 122.57 417.66Q134.70 406.43 134.70 390.68L134.70 390.68Q134.70 374.81 122.64 363.52Q110.58 352.22 91.79 352.22Z"/>
  </g>
</svg>